<svg xmlns="http://www.w3.org/2000/svg" width="21.029" height="21.941" viewBox="0 0 21.029 21.941">
  <g id="Group_10282" data-name="Group 10282" transform="translate(-113.498 -262.137)">
    <path id="Union_1" data-name="Union 1" d="M17921.2,21541.549l-8.791-9.211-8.789,9.211a1,1,0,0,1-1.6-1.189,1.019,1.019,0,0,1,.146-.189l8.855-9.281-8.855-9.279a.907.907,0,0,1-.141-.193,1,1,0,0,1,1.59-1.189l8.789,9.213,8.791-9.213a1,1,0,1,1,1.443,1.383l-8.854,9.279,8.854,9.281a1,1,0,1,1-1.443,1.379Z" transform="translate(-17788.393 -21257.781)" fill="#fff"/>
  </g>
</svg>
