<svg xmlns="http://www.w3.org/2000/svg" xmlns:xlink="http://www.w3.org/1999/xlink" width="95.689" height="63" viewBox="0 0 95.689 63">
  <defs>
    <clipPath id="clip-path">
      <rect id="Rectangle_1" data-name="Rectangle 1" width="95.689" height="63" fill="none"/>
    </clipPath>
  </defs>
  <g id="Group_2" data-name="Group 2" transform="translate(0 0)">
    <g id="Group_1" data-name="Group 1" transform="translate(0 0)" clip-path="url(#clip-path)">
      <path id="Path_1" data-name="Path 1" d="M1.481,77.022A6.773,6.773,0,0,0,0,81.674v14A6.716,6.716,0,0,0,1.544,100.4a5.8,5.8,0,0,0,4.487,1.675,5.8,5.8,0,0,0,4.486-1.675,6.719,6.719,0,0,0,1.545-4.728V91.989H8.19v3.983q0,2.384-2.047,2.383T4.1,95.972V81.413q0-2.42,2.048-2.419T8.19,81.413V84.43h3.873V81.674a8.928,8.928,0,0,0-.319-2.464A86.567,86.567,0,0,1,1.481,77.022" transform="translate(0 -39.079)" fill="#fff"/>
      <path id="Path_2" data-name="Path 2" d="M41.65,101.963v-4.58a9.171,9.171,0,0,0-.615-3.686,3.2,3.2,0,0,0-2.1-1.824V91.8q2.682-1.08,2.68-5.139v-1.6c0-.366-.021-.709-.052-1.041q-2.243-.077-4.321-.219a4.152,4.152,0,0,1,.278,1.67v2.01A3,3,0,0,1,36.9,89.6a2.459,2.459,0,0,1-1.844.634H33.57V83.5q-2.161-.21-4.1-.467v22.1h4.1V93.957h1.415a2.446,2.446,0,0,1,1.992.708,4.045,4.045,0,0,1,.577,2.5v4.765a17.809,17.809,0,0,0,.074,2.012,5.882,5.882,0,0,0,.3,1.191H42.1a4.542,4.542,0,0,1-.372-1.359,17.337,17.337,0,0,1-.074-1.806" transform="translate(-14.955 -42.128)" fill="#fff"/>
      <path id="Path_3" data-name="Path 3" d="M64.032,94.469h5.622V90.745H64.032V85.14c-.792.017-1.6.029-2.425.029-.564,0-1.119,0-1.67-.011V106.2H71.106v-3.724H64.032Z" transform="translate(-30.41 -43.197)" fill="#fff"/>
      <path id="Path_4" data-name="Path 4" d="M88.758,82.248l-3.577,21.961h3.8l.744-5.1h4.654v-.074l.745,5.175h4.1L95.474,81.22c-2.158.368-4.373.723-6.716,1.028m1.45,13.322,1.786-12.883h.074L93.894,95.57Z" transform="translate(-43.218 -41.209)" fill="#fff"/>
      <path id="Path_5" data-name="Path 5" d="M112.051,78.271l-.04.007v1.156h4.282v22.341h4.1V79.434h4.281V76.425c-4.45.412-8.462,1.115-12.62,1.846" transform="translate(-56.831 -38.776)" fill="#fff"/>
      <path id="Path_6" data-name="Path 6" d="M152.886,79.053V75.787c-1.6-.072-3.321-.114-5.167-.114-2.119,0-4.1.077-6,.21v25.511h11.169V97.67h-7.074v-8h5.622V85.942h-5.622V79.053Z" transform="translate(-71.903 -38.394)" fill="#fff"/>
      <path id="Path_7" data-name="Path 7" d="M169.149,76.174v25.475H175.4a5.965,5.965,0,0,0,4.58-1.638,6.8,6.8,0,0,0,1.527-4.8V82.025a7.379,7.379,0,0,0-1.1-4.254,69.109,69.109,0,0,0-11.266-1.6m8.265,19.219a2.844,2.844,0,0,1-.539,1.936,1.979,1.979,0,0,1-1.545.6h-2.085V79.308h2.085a1.979,1.979,0,0,1,1.545.6,2.845,2.845,0,0,1,.539,1.936Z" transform="translate(-85.821 -38.648)" fill="#fff"/>
      <path id="Path_8" data-name="Path 8" d="M27.116,37.624V33.613H16.976V0H10.813V35.021a105.113,105.113,0,0,0,16.3,2.6" transform="translate(-5.486 0)" fill="#fe0"/>
      <path id="Path_9" data-name="Path 9" d="M53.219,38.041l.949-6.5h7v-.112l.941,6.541c2.141-.1,4.149-.262,6.063-.462L62.067,0H53.72L47.57,37.764c1.789.127,3.672.224,5.649.277M57.585,6.835H57.7l2.744,19.384H54.9Z" transform="translate(-24.136 0)" fill="#fe0"/>
      <path id="Path_10" data-name="Path 10" d="M99.366,36.306V9.523h.112l3.937,26.083c2.145-.377,4.254-.746,6.406-1.071L113.6,9.523h.112V34.011c1.863-.218,3.788-.391,5.826-.5V0h-8.795l-3.922,28.067h-.112L102.783,0H93.988V37.122c1.86-.247,3.641-.525,5.378-.815" transform="translate(-47.687 0.001)" fill="#fe0"/>
      <path id="Path_11" data-name="Path 11" d="M158.332,33.562V23.249h2.913q4.593,0,6.891-2.466t2.3-7.226V9.692q0-4.761-2.3-7.227T161.245,0h-9.076V33.4c2.233,0,4.281.062,6.163.163m0-27.961h2.913a2.9,2.9,0,0,1,2.27.84A4.265,4.265,0,0,1,164.27,9.3v4.649a4.264,4.264,0,0,1-.756,2.858,2.9,2.9,0,0,1-2.27.84h-2.913Z" transform="translate(-77.206 0)" fill="#fe0"/>
    </g>
  </g>
</svg>
